<svg xmlns="http://www.w3.org/2000/svg" viewBox="0 0 444.1 469.9"><defs><style>.cls-1{fill:#07cc66;}.cls-2{fill:#ffd400;}.cls-3{fill:#5cbeff;}.cls-4{fill:#d94556;}.cls-5{fill:#ffd5ab;}.cls-6{fill:#94d4ff;}.cls-7{fill:#3256c1;}</style></defs><g id="Layer_2" data-name="Layer 2"><g id="Layer_1-2" data-name="Layer 1"><g id="_913-Business_Community_Team_Work" data-name="913-Business, Community, Team, Work"><path class="cls-1" d="M32.1,29.9a20,20,0,1,1-20,20A20,20,0,0,1,32.1,29.9Z"></path><path class="cls-2" d="M113.2,449.9H41V424.3a46.69,46.69,0,0,1,46.7-46.7h7.8a46.69,46.69,0,0,1,46.7,46.7v25.6Z"></path><path class="cls-3" d="M349.8,449.9H320.9V424.3a46.69,46.69,0,0,1,46.7-46.7h7.8a46.69,46.69,0,0,1,46.7,46.7v25.6H349.8Z"></path><path class="cls-4" d="M142.1,469.9V415.8a63.68,63.68,0,0,1,63.7-63.7h51.6a63.68,63.68,0,0,1,63.7,63.7v54.1Z"></path><path class="cls-5" d="M371.5,319.9a28.9,28.9,0,1,1-28.9,28.9A28.85,28.85,0,0,1,371.5,319.9Z"></path><path class="cls-5" d="M91.5,319.9a28.9,28.9,0,1,1-28.9,28.9A28.85,28.85,0,0,1,91.5,319.9Z"></path><path class="cls-5" d="M231.5,249.9A51.1,51.1,0,1,1,180.4,301,51.13,51.13,0,0,1,231.5,249.9Z"></path><path class="cls-6" d="M432.1,149.9a10,10,0,1,1-10,10A10,10,0,0,1,432.1,149.9Z"></path><path class="cls-6" d="M242.1,169.9a10,10,0,1,1-10,10A10,10,0,0,1,242.1,169.9Z"></path><path class="cls-6" d="M182.1,199.9a10,10,0,1,1-10,10A10,10,0,0,1,182.1,199.9Z"></path><path class="cls-6" d="M22.1,149.9a10,10,0,1,1-10,10A10,10,0,0,1,22.1,149.9Z"></path><path class="cls-7" d="M77.1,287.9a10,10,0,0,1-9.3-6.4A179.65,179.65,0,0,1,60,254.9L8.5,247.2A9.93,9.93,0,0,1,0,237.3V206.9A10,10,0,0,1,8.5,197L60,189.2a163.28,163.28,0,0,1,5.3-19.7L24.5,137a9.9,9.9,0,0,1-2.4-12.8L37.4,97.9a10,10,0,0,1,12.3-4.3l48.5,19.1a163.08,163.08,0,0,1,14.4-14.4l-19-48.7a10,10,0,0,1,4.3-12.3l26.3-15.2A9.9,9.9,0,0,1,137,24.5l32.5,40.8A197.76,197.76,0,0,1,189.2,60L197,8.5A9.93,9.93,0,0,1,206.9,0h30.4a9.93,9.93,0,0,1,9.9,8.5L254.9,60a163.28,163.28,0,0,1,19.7,5.3l32.5-40.8a9.9,9.9,0,0,1,12.8-2.4l26.4,15.2a10,10,0,0,1,4.3,12.3L331.5,98.1a163.08,163.08,0,0,1,14.4,14.4l48.5-19.1a10,10,0,0,1,12.3,4.3L421.9,124a10,10,0,0,1-2.4,12.8l-40.7,32.6a173.88,173.88,0,0,1,5.3,19.7l51.5,7.8a9.93,9.93,0,0,1,8.5,9.9v30.4a9.93,9.93,0,0,1-8.5,9.9l-51.5,7.7a156.81,156.81,0,0,1-7.8,26.7,10,10,0,0,1-18.6-7.2,147.47,147.47,0,0,0,8-29.8,10.19,10.19,0,0,1,8.4-8.4l50.1-7.5V215.4l-50.1-7.5a10.08,10.08,0,0,1-8.4-8.4,145.73,145.73,0,0,0-8-29.8,9.93,9.93,0,0,1,3.1-11.4l39.6-31.6-6.6-11.4-47.2,18.5a9.9,9.9,0,0,1-11.4-3,151.12,151.12,0,0,0-21.9-21.9,9.93,9.93,0,0,1-3-11.4l18.6-47.2-11.5-6.6L285.8,83.3a9.93,9.93,0,0,1-11.4,3.1,146.64,146.64,0,0,0-29.9-8,10,10,0,0,1-8.3-8.4l-7.5-50.1H215.5L207.9,70a10,10,0,0,1-8.3,8.4,146.64,146.64,0,0,0-29.9,8,9.93,9.93,0,0,1-11.4-3.1L126.7,43.7l-11.4,6.6,18.5,47.2a9.9,9.9,0,0,1-3,11.4,151.12,151.12,0,0,0-21.9,21.9,9.93,9.93,0,0,1-11.4,3L50.3,115.3l-6.6,11.4,39.6,31.6a9.93,9.93,0,0,1,3.1,11.4,150.18,150.18,0,0,0-8,29.9,10,10,0,0,1-8.4,8.3l-50,7.5v13.2l50.1,7.5a10,10,0,0,1,8.4,8.3,146.64,146.64,0,0,0,8,29.9,9.94,9.94,0,0,1-5.8,12.9,9.22,9.22,0,0,1-3.6.7Z"></path><path class="cls-3" d="M322.1,229.9a10,10,0,0,1-10-10,90,90,0,0,0-180,0,10,10,0,0,1-20,0,110,110,0,0,1,220,0A10,10,0,0,1,322.1,229.9Z"></path></g></g></g></svg>