<svg xmlns="http://www.w3.org/2000/svg" viewBox="0 0 512 512"><defs><style>.cls-1{fill:#ffbe40;}.cls-2{fill:#ff9f40;}.cls-3{fill:#4d3636;}.cls-4{fill:#665252;}.cls-5{fill:#5ab277;}.cls-6{fill:#7dd96b;}.cls-7{fill:#9bf243;}.cls-8{fill:#f3f5f9;}.cls-9{fill:#d8e0f0;}.cls-10{fill:#07cc66;}.cls-11{fill:#94d4ff;}</style></defs><g id="Layer_2" data-name="Layer 2"><g id="Capa_1" data-name="Capa 1"><path class="cls-1" d="M256,422H30v90H482V422Z"></path><path class="cls-2" d="M256,422H482v90H256Z"></path><path class="cls-3" d="M361,250.9h30V376H361Z"></path><path class="cls-4" d="M121,250.9h30V376H121Z"></path><path class="cls-4" d="M256,211H241V422h30V211Z"></path><path class="cls-3" d="M256,211h15V422H256Z"></path><path class="cls-5" d="M376,271A105.12,105.12,0,0,1,271,166a104,104,0,0,1,31.7-74.6A67.31,67.31,0,0,1,301,76c0-41.4,33.6-76,75-76s75,34.6,75,76a74.12,74.12,0,0,1-1.7,15.4A104,104,0,0,1,481,166,105.12,105.12,0,0,1,376,271Z"></path><path class="cls-6" d="M136,271A105.12,105.12,0,0,1,31,166,104,104,0,0,1,62.7,91.4,74.12,74.12,0,0,1,61,76C61,34.6,94.6,0,136,0s75,34.6,75,76a74.12,74.12,0,0,1-1.7,15.4A104,104,0,0,1,241,166,105.12,105.12,0,0,1,136,271Z"></path><path class="cls-7" d="M329.3,91.4A67.31,67.31,0,0,0,331,76c0-41.4-33.6-76-75-76s-75,34.6-75,76a74.12,74.12,0,0,0,1.7,15.4A104,104,0,0,0,151,166a105,105,0,0,0,210,0A104,104,0,0,0,329.3,91.4Z"></path><path class="cls-8" d="M316,361a75,75,0,0,0-60,30,75,75,0,0,0-60-30H0v91H211a44.94,44.94,0,0,1,45,45,44.94,44.94,0,0,1,45-45H512V361Z"></path><path class="cls-9" d="M301,452H512V361H316a75,75,0,0,0-60,30V497A44.94,44.94,0,0,1,301,452Z"></path><path class="cls-10" d="M31.1,281.8C47,272.5,63,283.6,63,298.4a20,20,0,0,1-20,20c-14.8,0-25.7-15.8-16.8-31.6A14.65,14.65,0,0,1,31.1,281.8Z"></path><path class="cls-11" d="M493,98.4a10,10,0,1,1-10,10A10,10,0,0,1,493,98.4Z"></path></g></g></svg>