<svg xmlns="http://www.w3.org/2000/svg" viewBox="0 0 450 450"><defs><style>.cls-1{fill:#3f4751;}.cls-2{fill:#d0dce7;}.cls-3{fill:#5cbeff;}.cls-4{fill:#fff;}.cls-5{fill:#cd2738;}.cls-6{fill:#d94556;}.cls-7{fill:#94d4ff;}.cls-8{fill:#07cc66;}</style></defs><g id="Layer_2" data-name="Layer 2"><g id="Layer_1-2" data-name="Layer 1"><g id="_933-Analytics_Business_Graph" data-name="933-Analytics, Business, Graph"><path class="cls-1" d="M430.57,374A40,40,0,0,1,374,430.57L257.57,314.14a171,171,0,0,0,56.57-56.57Z"></path><path class="cls-2" d="M290.21,49.79a170,170,0,1,0,24.93,208.78A170,170,0,0,0,290.21,49.79Z"></path><circle class="cls-3" cx="420" cy="140" r="30"></circle><path class="cls-3" d="M120,380a20,20,0,1,1-20,20A20,20,0,0,1,120,380Z"></path><path class="cls-4" d="M247.78,92.22A110,110,0,0,1,250,245.49V150H210v60H170V150H130v40H90v55.49A110,110,0,0,1,247.78,92.22Z"></path><path class="cls-5" d="M250,150v95.49c-.72.77-1.46,1.53-2.22,2.29A109.62,109.62,0,0,1,210,272.49V150Z"></path><path class="cls-5" d="M170,210v70a110,110,0,0,1-40-7.51V150h40Z"></path><path class="cls-6" d="M210,210v62.49A110,110,0,0,1,170,280V210Z"></path><path class="cls-6" d="M130,190v82.49a109.62,109.62,0,0,1-37.78-24.71c-.76-.76-1.5-1.52-2.22-2.29V190Z"></path><path class="cls-7" d="M410,240a10,10,0,1,1-10,10A10,10,0,0,1,410,240Z"></path><path class="cls-7" d="M390,30a10,10,0,1,1-10,10A10,10,0,0,1,390,30Z"></path><path class="cls-8" d="M310,430a10,10,0,1,1-10,10A10,10,0,0,1,310,430Z"></path><path class="cls-7" d="M190,370a10,10,0,1,1-10,10A10,10,0,0,1,190,370Z"></path><path class="cls-7" d="M40,340a10,10,0,1,1-10,10A10,10,0,0,1,40,340Z"></path><path class="cls-8" d="M280,450H190a10,10,0,0,1,0-20h90a10,10,0,0,1,0,20Z"></path></g></g></g></svg>