<svg xmlns="http://www.w3.org/2000/svg" viewBox="0 0 430 458.7"><defs><style>.cls-1{fill:#3256c1;}.cls-2{fill:#5cbeff;}.cls-3{fill:#ffd400;}.cls-4{fill:#07cc66;}.cls-5{fill:#d94556;}.cls-6{fill:#ffd5ab;}.cls-7{fill:#f88f19;}.cls-8{fill:#bce4ff;}.cls-9{fill:#94d4ff;}.cls-10{fill:#cd2738;}.cls-11{fill:#3f4751;}</style></defs><g id="Layer_2" data-name="Layer 2"><g id="Layer_1-2" data-name="Layer 1"><g id="_910-Building_Relationship_Team_Work" data-name="910-Building, Relationship, Team, Work"><path class="cls-1" d="M90,458.7a10,10,0,0,1-10-10,30,30,0,0,0-60,0,10,10,0,0,1-20,0,50,50,0,0,1,100,0A10,10,0,0,1,90,458.7Z"></path><path class="cls-2" d="M200,458.7a10,10,0,0,1-10-10,30,30,0,0,0-60,0,10,10,0,1,1-20,0,50,50,0,0,1,100,0A10,10,0,0,1,200,458.7Z"></path><path class="cls-3" d="M310,458.7a10,10,0,0,1-10-10,30,30,0,0,0-60,0,10,10,0,1,1-20,0,50,50,0,0,1,100,0A10,10,0,0,1,310,458.7Z"></path><path class="cls-2" d="M420,458.7a10,10,0,0,1-10-10,30,30,0,0,0-60,0,10,10,0,1,1-20,0,50,50,0,0,1,100,0A10,10,0,0,1,420,458.7Z"></path><path class="cls-3" d="M130,342.2a9.77,9.77,0,0,1-7.5-3.4,29.92,29.92,0,0,0-45,0,10,10,0,0,1-15-13.2,50.06,50.06,0,0,1,75,0,10,10,0,0,1-7.5,16.6Z"></path><path class="cls-1" d="M244.6,348.7a10.06,10.06,0,0,1-8.7-5,26.75,26.75,0,0,0-3.5-4.8,29.92,29.92,0,0,0-45,0,29,29,0,0,0-3.5,4.9,10,10,0,0,1-17.3-10.1,51,51,0,0,1,5.8-8,50.06,50.06,0,0,1,75,0,46,46,0,0,1,5.8,8.1,10,10,0,0,1-3.7,13.7,10.44,10.44,0,0,1-4.9,1.2Z"></path><path class="cls-4" d="M354.6,348.7a10.06,10.06,0,0,1-8.7-5,30,30,0,0,0-52,0,10,10,0,0,1-17.3-10.1,50,50,0,0,1,86.6,0,10.07,10.07,0,0,1-3.6,13.7A9.26,9.26,0,0,1,354.6,348.7Z"></path><path class="cls-5" d="M116.8,238.7A100.58,100.58,0,0,1,210,100.5h0a100.58,100.58,0,0,1,93.2,138.2Z"></path><circle class="cls-6" cx="270" cy="383.7" r="25"></circle><circle class="cls-6" cx="380" cy="383.7" r="25"></circle><circle class="cls-6" cx="320" cy="293.7" r="25"></circle><path class="cls-6" d="M210,268.7a25,25,0,1,1-25,25A25,25,0,0,1,210,268.7Z"></path><path class="cls-6" d="M160,358.7a25,25,0,1,1-25,25A25,25,0,0,1,160,358.7Z"></path><path class="cls-6" d="M50,358.7a25,25,0,1,1-25,25A25,25,0,0,1,50,358.7Z"></path><path class="cls-6" d="M100,268.7a25,25,0,1,1-25,25A25,25,0,0,1,100,268.7Z"></path><path class="cls-7" d="M350,75.5a25,25,0,1,1-25,25A25,25,0,0,1,350,75.5Z"></path><path class="cls-8" d="M210,100.5l25.1,73.1L210,198.7l-25.1-25.1Z"></path><path class="cls-6" d="M210,0a50.3,50.3,0,1,1-50.3,50.3A50.27,50.27,0,0,1,210,0Z"></path><path class="cls-9" d="M40,168.7a10,10,0,1,1-10,10A10,10,0,0,1,40,168.7Z"></path><path class="cls-10" d="M159.7,248.7a10,10,0,0,1-10-10v-30a10,10,0,0,1,20,0v30A10,10,0,0,1,159.7,248.7Z"></path><path class="cls-10" d="M260.2,248.7a10,10,0,0,1-10-10v-30a10,10,0,0,1,20,0v30A10,10,0,0,1,260.2,248.7Z"></path><path class="cls-11" d="M350,248.7H80a10,10,0,0,1,0-20H350a10,10,0,0,1,0,20Z"></path></g></g></g></svg>