<svg xmlns="http://www.w3.org/2000/svg" xmlns:xlink="http://www.w3.org/1999/xlink" id="Layer_1" x="0px" y="0px" viewBox="0 0 512 512" style="enable-background:new 0 0 512 512;" xml:space="preserve">
<style type="text/css">
	.st0{fill:#FF5876;}
	.st1{fill:#E6485D;}
	.st2{fill:#FF9517;}
	.st3{fill:#FFFFFF;}
	.st4{fill:#E4EEF9;}
	.st5{fill:#D5E0F2;}
	.st6{fill:#4EA1F4;}
	.st7{fill:#3292E0;}
	.st8{fill:#FFCF4D;}
	.st9{fill:#FFB629;}
	.st10{fill:#EF7F0F;}
	.st11{fill:#405B6C;}
</style>
<g>
	<g>
		<path class="st0" d="M330.5,91.1h-66.8l-9.3-9.3V38.4h86c3.9,0,6.4,4.2,4.5,7.6l-11.3,21c-0.8,1.5-0.8,3.4,0,4.9l5.4,10    L330.5,91.1z"></path>
		<g>
			<g>
				<path class="st1" d="M254.5,81.8v18.6h86c3.9,0,6.4-4.2,4.5-7.6l-5.9-11L254.5,81.8L254.5,81.8z"></path>
			</g>
		</g>
		<path class="st2" d="M254.5,170.4c-4.3,0-7.7-3.5-7.7-7.7V25.5c0-4.3,3.5-7.7,7.7-7.7c4.3,0,7.7,3.5,7.7,7.7v137.1    C262.2,166.9,258.7,170.4,254.5,170.4L254.5,170.4z"></path>
		<path class="st3" d="M89.8,447.2l65.5-9.3l9.3-103.6l-9.3-112.9H39.7c-8.6,0-15.5,6.9-15.5,15.5v201.1L89.8,447.2z"></path>
		<path class="st3" d="M24.3,456.5l65.5,9.3l65.5-9.3l9.3-9.3l-9.3-9.3H24.3L24.3,456.5z"></path>
		<path class="st3" d="M419.1,447.2l-65.5-9.3l-9.3-103.6l9.3-112.9h115.6c8.6,0,15.5,6.9,15.5,15.5v201.1L419.1,447.2z"></path>
		<path class="st3" d="M353.6,456.5l65.5,9.3l65.5-9.3v-18.6H353.6l-9.3,9.3L353.6,456.5z"></path>
		<path class="st4" d="M344.3,447.2H164.6l-9.3-9.3V178.1c0-8.6,6.9-15.5,15.5-15.5h167.3c8.6,0,15.5,6.9,15.5,15.5v259.8    L344.3,447.2z"></path>
		<path class="st5" d="M155.3,456.5l100.7,9.3l97.6-9.3v-18.6H155.3V456.5z"></path>
		<path class="st6" d="M254.5,447.2l-47.3-9.3v-67.7c0-25.7,21.2-46.6,47.3-46.6s47.3,20.9,47.3,46.6v67.7L254.5,447.2z"></path>
		<path class="st7" d="M207.1,456.5l47.3,9.3l47.3-9.3v-18.6h-94.6L207.1,456.5z"></path>
		<path class="st8" d="M293.3,232c-4.2-17.5-20-30.6-38.8-30.6s-34.6,13-38.8,30.6c-0.7,3,0,39.9,38.8,39.9S294,234.9,293.3,232    L293.3,232z"></path>
		<path class="st9" d="M254.5,262.6c-18.8,0-34.6-13.1-38.8-30.6c-0.7,3-1.1,6.1-1.1,9.3c0,22,17.9,39.9,39.9,39.9    s39.9-17.9,39.9-39.9c0-3.2-0.4-6.3-1.1-9.3C289.1,249.5,273.3,262.6,254.5,262.6L254.5,262.6z"></path>
		<path class="st2" d="M256,485L0,475.7v-8.9c0-5.7,4.6-10.3,10.3-10.3h491.4c5.7,0,10.3,4.6,10.3,10.3v8.9L256,485z"></path>
		<path class="st10" d="M5.2,494.3h501.7c2.9,0,5.2-2.3,5.2-5.2v-13.4H0v13.4C0,491.9,2.3,494.3,5.2,494.3L5.2,494.3z"></path>
	</g>
	<g>
		<path class="st11" d="M242,250.9h15.4c4.3,0,7.8-3.5,7.8-7.8v-16.8c0-4.3-3.5-7.8-7.8-7.8s-7.8,3.5-7.8,7.8v9.1H242    c-4.3,0-7.8,3.5-7.8,7.8C234.2,247.5,237.7,250.9,242,250.9L242,250.9z"></path>
		<path class="st11" d="M67.5,303.5c4.3,0,7.8-3.5,7.8-7.8v-18.6c0-4.3-3.5-7.8-7.8-7.8s-7.8,3.5-7.8,7.8v18.6    C59.8,300.1,63.3,303.5,67.5,303.5z"></path>
		<path class="st11" d="M111.4,303.5c4.3,0,7.8-3.5,7.8-7.8v-18.6c0-4.3-3.5-7.8-7.8-7.8s-7.8,3.5-7.8,7.8v18.6    C103.7,300.1,107.1,303.5,111.4,303.5z"></path>
		<path class="st11" d="M59.8,354.2c0,4.3,3.5,7.8,7.8,7.8s7.8-3.5,7.8-7.8v-18.6c0-4.3-3.5-7.8-7.8-7.8s-7.8,3.5-7.8,7.8    L59.8,354.2z"></path>
		<path class="st11" d="M103.7,354.2c0,4.3,3.5,7.8,7.8,7.8s7.8-3.5,7.8-7.8v-18.6c0-4.3-3.5-7.8-7.8-7.8s-7.8,3.5-7.8,7.8    L103.7,354.2z"></path>
		<path class="st11" d="M59.8,412.6c0,4.3,3.5,7.8,7.8,7.8s7.8-3.5,7.8-7.8v-18.6c0-4.3-3.5-7.8-7.8-7.8s-7.8,3.5-7.8,7.8    L59.8,412.6z"></path>
		<path class="st11" d="M103.7,412.6c0,4.3,3.5,7.8,7.8,7.8s7.8-3.5,7.8-7.8v-18.6c0-4.3-3.5-7.8-7.8-7.8s-7.8,3.5-7.8,7.8    L103.7,412.6z"></path>
		<path class="st11" d="M449.1,277.2c0-4.3-3.5-7.8-7.8-7.8s-7.8,3.5-7.8,7.8v18.6c0,4.3,3.5,7.8,7.8,7.8s7.8-3.5,7.8-7.8V277.2z"></path>
		<path class="st11" d="M405.2,277.2c0-4.3-3.5-7.8-7.8-7.8s-7.8,3.5-7.8,7.8v18.6c0,4.3,3.5,7.8,7.8,7.8s7.8-3.5,7.8-7.8V277.2z"></path>
		<path class="st11" d="M449.1,335.6c0-4.3-3.5-7.8-7.8-7.8s-7.8,3.5-7.8,7.8v18.6c0,4.3,3.5,7.8,7.8,7.8s7.8-3.5,7.8-7.8V335.6z"></path>
		<path class="st11" d="M405.2,335.6c0-4.3-3.5-7.8-7.8-7.8s-7.8,3.5-7.8,7.8v18.6c0,4.3,3.5,7.8,7.8,7.8s7.8-3.5,7.8-7.8V335.6z"></path>
		<path class="st11" d="M441.4,386.3c-4.3,0-7.8,3.5-7.8,7.8v18.6c0,4.3,3.5,7.8,7.8,7.8s7.8-3.5,7.8-7.8v-18.6    C449.1,389.8,445.6,386.3,441.4,386.3z"></path>
		<path class="st11" d="M397.5,386.3c-4.3,0-7.8,3.5-7.8,7.8v18.6c0,4.3,3.5,7.8,7.8,7.8s7.8-3.5,7.8-7.8v-18.6    C405.2,389.8,401.8,386.3,397.5,386.3z"></path>
	</g>
</g>
</svg>