<svg xmlns="http://www.w3.org/2000/svg" xmlns:xlink="http://www.w3.org/1999/xlink" id="Layer_1" x="0px" y="0px" viewBox="0 0 512 512" style="enable-background:new 0 0 512 512;" xml:space="preserve">
<style type="text/css">
	.st0{fill:#FFFFFF;}
	.st1{fill:#DCE7F7;}
	.st2{fill:#EBF2FC;}
	.st3{fill:#86DCFF;}
	.st4{fill:#7EDEFC;}
	.st5{fill:#67B734;}
	.st6{fill:#56CAED;}
	.st7{fill:#636770;}
	.st8{fill:#3B3D44;}
	.st9{fill:#549E25;}
</style>
<g>
	<g>
		<path class="st0" d="M223.4,441.1v28.3l18.7,9.3l18.7-9.3v-31.1l-18.4-7.2L223.4,441.1z"></path>
		<path class="st1" d="M223.6,422.5C223.6,422.5,223.6,422.5,223.6,422.5c-0.1,0-0.2,0-0.2,0v18.6c0.1,0,0.1,0,0.2,0h0.1    c12.5,0,24.9-1,37.1-2.8v-18.6l-18.4-7.2C242.3,412.5,223.4,422.5,223.6,422.5z"></path>
		<path class="st0" d="M395.8,6.3c-2.8-2.8-6.5-4.3-10.4-4.3s-7.7,1.6-10.4,4.3l-36,36l0.2,19.6l20.7,1.2l25.2-25.2    c34.1,39,52.7,88.5,52.8,140.8c0,57.3-22.3,111.1-62.7,151.5c-40.5,40.5-94.3,62.7-151.5,62.7c0,0,0,0-0.1,0    c-52.3,0-101.8-18.6-140.8-52.8l25.2-25.2l-2.3-16.1l-18.6-4.7l-36,36c-0.4,0.4-0.7,0.7-1,1.1c0,0-0.1,3.5,0.5,6.8    c0.8,3.8,3,7.5,5.8,10.2c46.1,46.1,102,64.8,167.1,64.8h0.1c65.1,0,126.3-25.3,172.3-71.4c46-46,71.4-98,71.4-163.1    c0-3.1-0.1-6.2-0.2-9.2C464.8,107.9,439.7,50.2,395.8,6.3L395.8,6.3z"></path>
		<g>
			<path class="st2" d="M395.9,332.6c-46,46-107.2,71.4-172.3,71.4c0,0,0,0-0.1,0c-65.1,0-126.3-25.4-172.4-71.4     c-0.4-0.4-0.7-0.7-1-1.1c-2.1,2.6-3.3,5.9-3.3,9.3c0,3.9,1.6,7.7,4.3,10.4c46.1,46.1,107.3,71.4,172.4,71.4h0.1     c65.1,0,126.3-25.3,172.3-71.4c46-46,71.4-107.3,71.4-172.4c0-3.1-0.1-6.2-0.2-9.2C464.8,231.1,439.7,288.7,395.9,332.6     L395.9,332.6z"></path>
		</g>
		<ellipse class="st3" cx="223.5" cy="178.7" rx="178.8" ry="178.7"></ellipse>
		<path class="st4" d="M44.7,178.7c0-3.1,0.1-6.2,0.2-9.3c2.1-40.3,17.5-77.1,41.9-106L304,19.1c39.2,19.8,70.2,53.7,86.2,94.9    c6.7,17.3,5.7,109.8-5.6,131.5c-28.9,55.6-90.2,102.5-161.2,102.5C124.8,348.1,44.7,257.2,44.7,178.7L44.7,178.7z"></path>
		<path class="st5" d="M304,19.1C279.8,6.9,252.5,0,223.5,0C168.7,0,119.7,24.7,86.9,63.5c8.8,18.6,24.9,37.6,53.1,33.9    c52.9-7,76.3-0.8,77.1,28.8s17.9,58.1,48.3,58.1s-3-38.1,5.5-51.9c8.6-13.8,34.6-11.1,39.6-28.2c6.2-20.9-35.8-36.4-19.5-55.1    C296.9,42.3,301.1,30.9,304,19.1L304,19.1z"></path>
		<path class="st5" d="M145.4,266.2c24.2-7.8,8.3-37.8,27-47.2c18.8-9.4,28.2-23.1,6-51.8c-20.5-26.5-44.1-36.7-69.1-24.8    c-26.5,12.6-43.4,41-24,52c15.7,8.9,35.3,14.3,26.8,35.4C103.6,250.7,121.2,274,145.4,266.2L145.4,266.2z"></path>
		<g>
			<path class="st6" d="M155.1,325.3C93,299.6,48.6,239.9,45,169.4c-0.2,3.1-0.2,6.2-0.2,9.3c0,75.6,47,140.3,113.4,166.4l5.1-9     L155.1,325.3z"></path>
			<path class="st6" d="M381.3,244.3c-10.7,19.9-25,37.6-42.1,52.1l-4.6,14.1c0,0,7.9,1.6,7.9,1.5c0,0,0,0,0,0     c19.9-17.7,35.7-39.8,46.1-64.8l-2-6.3L381.3,244.3z"></path>
		</g>
		<path class="st5" d="M371.2,150.7c-7.7,18.1-36.4,9.1-41.1,41.8c-3.4,23.8,27.5,41.7,51.1,51.9l5.3-3.2c0,0,15.8-38.1,15.8-62.4    c0-22.8-4.3-44.6-12.1-64.6C380.5,124.1,375.9,139.4,371.2,150.7L371.2,150.7z"></path>
		<path class="st7" d="M354.4,502.7H129.8l-9.2-9.3c0.9-13.5,12.1-24.1,25.7-24.1h191.6c13.7,0,24.9,10.6,25.7,24.1L354.4,502.7z"></path>
		<path class="st8" d="M120.5,493.4c0,0.4,0,8-0.1,13.4c0,2.9,2.3,5.2,5.2,5.2h232.8c2.9,0,5.2-2.3,5.2-5.2c0-5.4,0-13-0.1-13.4    L120.5,493.4z"></path>
		<path class="st5" d="M334.6,310.5l4.6-14.1c-15.5-55.9-61.6-59.4-80.5-49.1c-21.2,11.5-13.2,42-35.2,52.9    c-22,10.9-45-25.7-62.9,3.9c-4,6.5-5.5,13.8-5.5,21.2l10.6,11.9c20.3,8,34.7,10.9,57.8,10.9C269.2,348.1,303,338.7,334.6,310.5    L334.6,310.5z"></path>
		<g>
			<path class="st9" d="M223.5,338.8c-24.2,0-47.3-4.8-68.4-13.6c0,6.7,1.2,13.4,3,19.8c20.3,8,42.3,12.3,65.4,12.3     c45.7,0,87.4-17.1,119-45.3c-0.8-5.6-1.9-10.9-3.3-15.7C308,322.8,267.6,338.8,223.5,338.8L223.5,338.8z"></path>
			<path class="st9" d="M381.3,244.3c2.6,1.1,5,2.1,7.4,3c8.8-21.1,13.6-44.3,13.6-68.6c0-3.1-0.1-6.2-0.2-9.2     C400.6,196.4,393.3,221.8,381.3,244.3L381.3,244.3z"></path>
		</g>
	</g>
</g>
</svg>